<svg width="400" height="400" viewBox="0 0 400 400" fill="none" xmlns="http://www.w3.org/2000/svg">
<path d="M83.3335 234.317C83.3335 217.483 83.3335 209.083 87.0335 201.9C90.7168 194.733 97.5668 189.833 111.25 180.067L180.633 130.5C189.967 123.833 194.667 120.483 200 120.483C205.333 120.483 210.017 123.817 219.367 130.5L288.75 180.05C302.434 189.833 309.283 194.717 312.967 201.9C316.65 209.083 316.667 217.483 316.667 234.3V316.667C316.667 332.383 316.667 340.233 311.783 345.117C306.9 350 299.05 350 283.333 350H116.667C100.95 350 93.1002 350 88.2168 345.117C83.3335 340.233 83.3335 332.383 83.3335 316.667V234.317Z" fill="#2B385B" fill-opacity="0.5"/>
<path d="M50 206.45C50 210.883 50 213.117 51.4 213.8C52.8 214.483 54.5667 213.133 58.0667 210.383L179.533 115.917C189.367 108.267 194.283 104.45 200 104.45C205.717 104.45 210.633 108.283 220.467 115.917L341.933 210.383C345.433 213.117 347.2 214.483 348.6 213.8C350 213.117 350 210.883 350 206.45V199.633C350 191.633 350 187.633 348.3 184.167C346.6 180.7 343.45 178.233 337.133 173.333L220.467 82.5833C210.633 74.9333 205.717 71.1167 200 71.1167C194.283 71.1167 189.367 74.95 179.533 82.5833L62.8667 173.333C56.55 178.233 53.3833 180.7 51.7 184.167C50.0167 187.633 50 191.633 50 199.633V206.45ZM208.333 250H191.667C182.826 250 174.348 253.512 168.096 259.763C161.845 266.014 158.333 274.493 158.333 283.333V347.5C158.333 348.883 159.45 350 160.833 350H239.167C239.83 350 240.466 349.737 240.934 349.268C241.403 348.799 241.667 348.163 241.667 347.5V283.333C241.667 274.493 238.155 266.014 231.904 259.763C225.652 253.512 217.174 250 208.333 250Z" fill="#2B385B"/>
<path d="M291.667 83.3333H275C270.397 83.3333 266.667 87.0643 266.667 91.6666V141.667C266.667 146.269 270.397 150 275 150H291.667C296.269 150 300 146.269 300 141.667V91.6666C300 87.0643 296.269 83.3333 291.667 83.3333Z" fill="#2B385B"/>
</svg>
