<svg width="350" height="350" viewBox="0 0 350 350" fill="none" xmlns="http://www.w3.org/2000/svg">
<path d="M262.5 116.667H116.667C100.625 116.667 87.4998 129.792 87.4998 145.833V233.333C87.4998 241.069 90.5727 248.487 96.0426 253.957C101.512 259.427 108.931 262.5 116.667 262.5H262.5C278.687 262.5 291.667 249.521 291.667 233.333V145.833C291.667 138.098 288.594 130.679 283.124 125.209C277.654 119.74 270.235 116.667 262.5 116.667ZM204.167 233.333H116.667V204.167H204.167V233.333ZM262.5 175H116.667V145.833H262.5V175ZM320.833 87.5H58.3332V320.833H29.1665V29.1667H58.3332V58.3334H320.833V87.5Z" fill="white" fill-opacity="0.42"/>
</svg>
